# xmcd
#
# Track frame offsets:
#  150
#  12996
#  33818
#  53197
#  70677
#  87817
#  107547
#  124661
#  139228
#  163272
#  177087
#  192692
#  207692
#  226575
#  243781
#  258217
#  280226
#  302471
#  322549
#  337478
#
# Disc length: 4710 seconds
#
# Revision: 0
# Processed by: cddbd v1.4PL0 Copyright (c) Steve Scherf et al.
# Submitted via: AltoMP3_Maker 3.0
#
DISCID=11126414
DTITLE=Nescafe - Русская версия 3
DYEAR=1900
DGENRE=
TTITLE0=Хочешь
TTITLE1=Моя
TTITLE2=Я тебя всегда буду ждать
TTITLE3=Для тебя
TTITLE4=Три ночи
TTITLE5=Сто поцелуев
TTITLE6=Несколько минут
TTITLE7=Успокой любимый сом
TTITLE8=К Алине
TTITLE9=Вчера
TTITLE10=Иди за мной
TTITLE11=Мне так хочется быть с тобой
TTITLE12=Свеча
TTITLE13=Я буду с тобой
TTITLE14=Любовь
TTITLE15=Где теперь любовь
TTITLE16=Птица в клетке
TTITLE17=Слез моих не увидишь
TTITLE18=Территория
TTITLE19=Падают листья
EXTD=
EXTT0=
EXTT1=
EXTT2=
EXTT3=
EXTT4=
EXTT5=
EXTT6=
EXTT7=
EXTT8=
EXTT9=
EXTT10=
EXTT11=
EXTT12=
EXTT13=
EXTT14=
EXTT15=
EXTT16=
EXTT17=
EXTT18=
EXTT19=
PLAYORDER=
